<?xml version="1.0" encoding="UTF-8" standalone="no"?>
<!DOCTYPE svg PUBLIC "-//W3C//DTD SVG 1.1//EN" "http://www.w3.org/Graphics/SVG/1.1/DTD/svg11.dtd">
<svg width="100%" height="100%" viewBox="0 0 906 890" version="1.1" xmlns="http://www.w3.org/2000/svg" xmlns:xlink="http://www.w3.org/1999/xlink" xml:space="preserve" xmlns:serif="http://www.serif.com/" style="fill-rule:evenodd;clip-rule:evenodd;stroke-linecap:round;stroke-miterlimit:10;">
    <g id="Artboard1" transform="matrix(2.62842,0,0,1,-2076.3,-103.309)">
        <rect x="789.943" y="103.309" width="344.621" height="889.093" style="fill:none;"/>
        <g transform="matrix(0.380457,0,0,1,703.27,0.309131)">
            <path d="M959.3,658.8L958,658.8C916.4,658.8 882.6,624.6 882.6,583L882.6,582.8L1034.6,582.8L1034.6,583C1034.6,624.6 1000.9,658.8 959.3,658.8Z" style="fill:rgb(77,77,77);fill-rule:nonzero;"/>
            <path d="M805.7,503.1C812.9,510.4 824.5,510.5 831.8,503.4L929.8,407.2C937.1,400.1 937.2,388.4 930.1,381.1C923,373.8 911.3,373.7 904,380.8L806,477C798.7,484.1 798.6,495.8 805.7,503.1Z" style="fill:rgb(64,90,127);fill-rule:nonzero;"/>
            <path d="M802.8,482.9L801.2,486.7C797.7,495.1 801.7,504.6 810.1,508.1L904.8,547.2C913.2,550.7 922.7,546.7 926.2,538.3L927.8,534.5C931.3,526.1 927.3,516.6 918.9,513.1L824.2,474C815.8,470.5 806.2,474.5 802.8,482.9Z" style="fill:rgb(64,90,127);fill-rule:nonzero;"/>
            <path d="M1114.5,503.1C1107.3,510.4 1095.7,510.5 1088.4,503.4L990.4,407.2C983.1,400.1 983,388.4 990.1,381.1C997.2,373.8 1008.9,373.7 1016.2,380.8L1114.2,477C1121.5,484.1 1121.6,495.8 1114.5,503.1Z" style="fill:rgb(64,90,127);fill-rule:nonzero;"/>
            <path d="M1119.1,487.5L1119.8,491.6C1121.3,500.5 1115.2,509 1106.3,510.4L1005.2,527C996.3,528.5 987.8,522.4 986.4,513.5L985.7,509.4C984.2,500.5 990.3,492 999.2,490.6L1100.3,474C1109.2,472.6 1117.7,478.6 1119.1,487.5Z" style="fill:rgb(64,90,127);fill-rule:nonzero;"/>
            <path d="M934.3,924.8L934.3,965.8L853.5,966.2C853.5,966.2 856.5,947.8 876.4,944.3C896.2,940.7 913,952.1 913,952.1L915.1,924.8L934.3,924.8Z" style="fill:rgb(117,76,36);fill-rule:nonzero;"/>
            <rect x="903.6" y="582.8" width="41" height="342" style="fill:rgb(77,77,77);"/>
            <path d="M982.4,924.8L982.4,965.8L1063.2,966.2C1063.2,966.2 1060.2,947.8 1040.3,944.3C1020.5,940.7 1003.7,952.1 1003.7,952.1L1001.6,924.8L982.4,924.8Z" style="fill:rgb(117,76,36);fill-rule:nonzero;"/>
            <g transform="matrix(-1,-1.22465e-16,1.22465e-16,-1,1984.28,1507.57)">
                <rect x="971.6" y="582.8" width="41" height="342" style="fill:rgb(77,77,77);"/>
            </g>
            <path d="M924.9,375.2L992.4,375.2C1015.7,375.2 1034.6,394.1 1034.6,417.4L1034.6,582.7L882.6,582.7L882.6,417.4C882.6,394.1 901.5,375.2 924.9,375.2Z" style="fill:rgb(64,90,127);fill-rule:nonzero;"/>
            <path d="M906.1,561.7L906.1,486.3C906.1,483.1 908.7,480.5 911.9,480.5L1039.8,480.5C1043,480.5 1045.6,483.1 1045.6,486.3L1045.6,561.7C1045.6,564.9 1043,567.5 1039.8,567.5L911.9,567.5C908.7,567.5 906.1,564.9 906.1,561.7Z" style="fill:rgb(51,51,51);fill-rule:nonzero;"/>
            <g>
                <path d="M898.7,520.8C902.2,521.2 905.4,518.7 905.8,515.2L909.1,486C909.5,482.5 907,479.3 903.5,478.9C900,478.5 896.8,481 896.4,484.5L893.1,513.7C892.7,517.2 895.2,520.4 898.7,520.8Z" style="fill:rgb(191,132,79);fill-rule:nonzero;"/>
                <path d="M897.3,551L907.6,552.2C912,552.7 916,549.5 916.5,545.1L920.4,510.2C920.9,505.8 917.7,501.8 913.3,501.3L903,500.1C898.3,499.6 894,503 893.5,507.7L889.7,541.5C889.2,546.2 892.6,550.5 897.3,551Z" style="fill:rgb(191,132,79);fill-rule:nonzero;"/>
                <path d="M901.5,506.3C901.1,509.8 903.6,513 907.1,513.4L936.3,516.7C939.8,517.1 943,514.6 943.4,511.1C943.8,507.6 941.3,504.4 937.8,504L908.6,500.7C905.1,500.3 901.9,502.8 901.5,506.3Z" style="fill:rgb(191,132,79);fill-rule:nonzero;"/>
                <path d="M905.8,519.7C905.4,523.2 907.9,526.4 911.4,526.8L940.6,530.1C944.1,530.5 947.3,528 947.7,524.5C948.1,521 945.6,517.8 942.1,517.4L912.9,514.1C909.4,513.7 906.2,516.2 905.8,519.7Z" style="fill:rgb(191,132,79);fill-rule:nonzero;"/>
                <path d="M901.2,532.1C900.8,535.6 903.3,538.8 906.8,539.2L936,542.5C939.5,542.9 942.7,540.4 943.1,536.9C943.5,533.4 941,530.2 937.5,529.8L908.3,526.5C904.8,526 901.6,528.5 901.2,532.1Z" style="fill:rgb(191,132,79);fill-rule:nonzero;"/>
                <path d="M895.1,544.2C894.7,547.7 897.2,550.9 900.7,551.3L929.9,554.6C933.4,555 936.6,552.5 937,549C937.4,545.5 934.9,542.3 931.4,541.9L902.2,538.6C898.6,538.2 895.5,540.7 895.1,544.2Z" style="fill:rgb(191,132,79);fill-rule:nonzero;"/>
            </g>
            <path d="M987.2,373.1C987.2,386.5 976.3,397.6 962.9,397.6L962.7,397.6C949.3,397.6 938.2,386.5 938.2,373.1L938.2,351.6L987.2,351.6L987.2,373.1Z" style="fill:rgb(191,132,79);fill-rule:nonzero;"/>
            <path d="M938.2,367.5C947.7,371.6 957.6,373.8 967.1,373.8C973.7,373.8 980.5,372.7 987.2,370.7L987.2,355.2L938.2,355.2L938.2,367.5Z" style="fill:rgb(160,109,66);fill-rule:nonzero;"/>
            <path d="M1092.3,242.8C1092.3,232.9 1086,224.4 1077.1,221.3C1083.2,215.7 1087.1,207.7 1087.1,198.7C1087.1,182.8 1074.9,169.7 1059.3,168.3C1060.6,165.2 1061.3,161.8 1061.3,158.2C1061.3,143.3 1049.2,131.2 1034.3,131.2C1026.9,131.2 1020.3,134.1 1015.4,138.9L1015.4,138.7C1015.4,124.9 1004.2,113.7 990.4,113.7C981.6,113.7 973.9,118.2 969.4,125.1C964.1,119 956.2,115.2 947.5,115.2C934.2,115.2 923,124.1 919.6,136.2C915.3,133.6 910.2,132.2 904.8,132.2C888.7,132.2 875.7,145.2 875.7,161.3C875.7,163.5 875.9,165.6 876.4,167.6C859.5,167.8 845.8,181.5 845.8,198.5C845.8,209.9 852,219.8 861.1,225.2C854,229 849.2,236.5 849.2,245.2C849.2,254.7 855,262.8 863.3,266.2C860.9,269.4 859.4,273.4 859.4,277.8C859.4,287.9 867.1,296.2 877,297.1C876.1,299.4 875.6,301.9 875.6,304.5C875.6,315.5 884.5,324.4 895.5,324.4C903.1,324.4 909.7,320.1 913,313.9C928.1,324.4 946.5,330.6 966.4,330.6C986.5,330.6 1005.2,324.3 1020.4,313.5C1023.6,320.7 1030.8,325.7 1039.2,325.7C1050.6,325.7 1059.9,316.5 1059.9,305C1059.9,303 1059.6,301 1059,299.1C1059.6,299.1 1060.2,299.2 1060.8,299.2C1073.7,299.2 1084.2,288.7 1084.2,275.8C1084.2,271.1 1082.8,266.7 1080.4,263C1087.5,258.9 1092.3,251.4 1092.3,242.8Z" style="fill:rgb(96,56,19);fill-rule:nonzero;"/>
            <path d="M969.1,361.8C934.2,361.8 892.3,331.3 892.3,288.6L892.3,222.4C892.3,188 920.2,160 954.7,160L984,160C1018.4,160 1046.4,187.9 1046.4,222.4L1046.4,288.6C1046.3,331.3 1004,361.8 969.1,361.8Z" style="fill:rgb(191,132,79);fill-rule:nonzero;"/>
            <rect x="874.1" y="217.2" width="36.3" height="39" style="fill:rgb(96,56,19);"/>
            <circle cx="891.9" cy="253.9" r="21.9" style="fill:rgb(191,132,79);"/>
            <path d="M887.5,257C887.5,252.7 891,249.2 895.3,249.2C896.5,249.2 897.6,249.5 898.6,249.9C897.2,247.6 894.8,246.1 891.9,246.1C887.6,246.1 884.1,249.6 884.1,253.9C884.1,257 885.9,259.7 888.6,260.9C887.9,259.8 887.5,258.4 887.5,257Z" style="fill:rgb(140,98,57);fill-rule:nonzero;"/>
            <ellipse cx="944.2" cy="256.5" rx="5" ry="8.8" style="fill:rgb(51,51,51);"/>
            <ellipse cx="1007.7" cy="256.5" rx="5" ry="8.8" style="fill:rgb(51,51,51);"/>
            <path d="M971.1,265.7L971.1,281.6C971.1,282.3 972,282.9 972.7,282.9L982.1,282.9C984.7,282.9 986.1,279.9 984.4,278L973.5,265C972.8,263.9 971.1,264.4 971.1,265.7Z" style="fill:rgb(140,98,57);fill-rule:nonzero;"/>
            <circle cx="1048" cy="253.9" r="21.9" style="fill:rgb(191,132,79);"/>
            <path d="M1055.3,257C1055.3,252.7 1051.8,249.2 1047.5,249.2C1046.3,249.2 1045.2,249.5 1044.2,249.9C1045.6,247.6 1048,246.1 1050.9,246.1C1055.2,246.1 1058.7,249.6 1058.7,253.9C1058.7,257 1056.9,259.7 1054.2,260.9C1054.9,259.8 1055.3,258.4 1055.3,257Z" style="fill:rgb(140,98,57);fill-rule:nonzero;"/>
            <path d="M950.6,291.6C950.6,305.2 961.7,316.3 975.3,316.3C988.9,316.3 1000,305.2 1000,291.6" style="fill:none;fill-rule:nonzero;stroke:rgb(140,98,57);stroke-width:4.53px;"/>
            <path d="M1050.5,195.4L1050.5,187C1050.5,170.2 1036.9,156.6 1020.1,156.6L923,156.6C906.2,156.6 892.6,170.2 892.6,187L892.6,210.3C891.6,213.1 891.6,215.9 892.6,218.7L896,225.2C901.5,231.2 911.2,232.4 919.4,227.7C927.2,223.2 931,214.8 929.3,207.3L931.2,206.3C934,207.8 937.2,208.7 940.6,208.7C949.3,208.7 956.7,203 959.2,195C962.4,204 971.7,210.5 982.6,210.5C990.7,210.5 998,206.9 1002.4,201.3C1004,207.7 1008.4,213.9 1015,218.1C1027.2,225.8 1042.4,223.8 1048.9,213.7C1052.3,208.2 1052.5,201.6 1050.5,195.4Z" style="fill:rgb(96,56,19);fill-rule:nonzero;"/>
        </g>
    </g>
</svg>
